# xmcd CD database file
#
# Track frame offsets:
#	150
#	23486
#	47831
#	69483
#	88476
#	99523
#	114114
#	127408
#	155776
#
# Disc length: 2564 seconds
#
# Revision: 3
# Processed by: cddbd v1.5.2PL0 Copyright (c) Steve Scherf et al.
# Submitted via: CDex 1.70beta2
#
DISCID=790a0209
DTITLE=Jacques Palminger and 440 Hz Trio - JZZ and LYRK
DYEAR=2012
DGENRE=Jazz
TTITLE0=Gedächtniskonzert
TTITLE1=Bittermandel and Salat
TTITLE2=Que reste-t-il
TTITLE3=Mein Schiff
TTITLE4=Mantra
TTITLE5=Stadtpark
TTITLE6=Es ist mein Leben
TTITLE7=Verkaufen
TTITLE8=Trio von ausnehmender Hässlichkeit
EXTD=YEAR: 2012
EXTT0=
EXTT1=
EXTT2=
EXTT3=
EXTT4=
EXTT5=
EXTT6=
EXTT7=
EXTT8=
PLAYORDER=
